<svg xmlns="http://www.w3.org/2000/svg" width="80" height="30.27" viewBox="0 0 80 30.27">
  <g id="moglix" transform="translate(0.089 0.383)">
    <rect id="Rectangle_1" data-name="Rectangle 1" width="80" height="30.27" transform="translate(-0.089 -0.383)" fill="#fff"/>
    <path id="Path_356" data-name="Path 356" d="M-531.125-70.381h-3.3c.18-2.036.255-4.015.255-5.935a4.721,4.721,0,0,0-.57-2.822,2.308,2.308,0,0,0-1.832-.669,3.964,3.964,0,0,0-2.132.713q-.045,1.505-.045,2.705c0,1.338.03,3.345.075,6.007h-3.333c.18-2.211.271-4.349.271-6.429a4.274,4.274,0,0,0-.466-2.313,2.2,2.2,0,0,0-1.937-.684,3.061,3.061,0,0,0-2.252.887c.045,3.185.06,6.036.06,8.553h-3.348q.225-3.775.225-5.935a24,24,0,0,0-.616-5.44l3.183-.335.21,1.28h.2a5.407,5.407,0,0,1,3.648-1.426,4.133,4.133,0,0,1,3.574,1.426h.2a6.015,6.015,0,0,1,3.649-1.426,4.916,4.916,0,0,1,3.2.887,3.981,3.981,0,0,1,1.081,3.215c0,.16-.015.451-.03.873s-.03.727-.03.873C-531.17-75.051-531.155-73.043-531.125-70.381Z" transform="translate(553.8 90.738)" fill="#d9232d"/>
    <path id="Path_357" data-name="Path 357" d="M-233.881-78.762a6.039,6.039,0,0,1-1.937,4.756,6.617,6.617,0,0,1-4.549,1.716,6.3,6.3,0,0,1-4.279-1.556,5.575,5.575,0,0,1-1.787-4.407,6.081,6.081,0,0,1,1.937-4.785,6.667,6.667,0,0,1,4.564-1.731,6.168,6.168,0,0,1,4.249,1.571A5.55,5.55,0,0,1-233.881-78.762Zm-3.258.364a4.986,4.986,0,0,0-.841-2.938,2.6,2.6,0,0,0-2.207-1.193,2.549,2.549,0,0,0-2.147,1.105,4.511,4.511,0,0,0-.826,2.778,4.986,4.986,0,0,0,.841,2.938,2.6,2.6,0,0,0,2.207,1.193,2.549,2.549,0,0,0,2.147-1.105A4.511,4.511,0,0,0-237.139-78.4Z" transform="translate(269.843 93.126)" fill="#d9232d"/>
    <path id="Path_358" data-name="Path 358" d="M-30.785-106.763l-.27,2.24c-1.291,0-2.1.175-2.432.538v.16a3.119,3.119,0,0,1,.736,2.022,3.867,3.867,0,0,1-1.321,2.953,5.553,5.553,0,0,1-3.919,1.222,9.229,9.229,0,0,1-2.087-.189c-.435.189-.661.451-.661.756a1.064,1.064,0,0,0,.8,1.033,13.434,13.434,0,0,0,3.679.291c3.333,0,5,1.105,5,3.3a4.184,4.184,0,0,1-2.087,3.68,8.969,8.969,0,0,1-5.06,1.367q-5.833,0-5.826-3.549a2.781,2.781,0,0,1,.661-1.862,2.6,2.6,0,0,1,1.516-.931V-93.9a2.142,2.142,0,0,1-1.051-1.949,2.61,2.61,0,0,1,1.426-2.225v-.175a3.2,3.2,0,0,1-2.012-3.055,3.761,3.761,0,0,1,1.4-2.967,6.464,6.464,0,0,1,4.294-1.193,6.328,6.328,0,0,1,3.213.727h.18c.24-1.527,1.051-2.284,2.417-2.284A3.338,3.338,0,0,1-30.785-106.763Zm-3.558,15.229a1.379,1.379,0,0,0-.706-1.295,5.325,5.325,0,0,0-2.417-.393c-.931,0-1.877-.044-2.823-.116a1.994,1.994,0,0,0-1.1,1.862c0,1.542,1.066,2.313,3.183,2.313a5.263,5.263,0,0,0,2.823-.655A1.943,1.943,0,0,0-34.343-91.533Zm-1.471-9.935a1.983,1.983,0,0,0-.721-1.658,2.607,2.607,0,0,0-1.652-.567,2.577,2.577,0,0,0-1.637.553,1.888,1.888,0,0,0-.706,1.615,1.926,1.926,0,0,0,.721,1.629,2.7,2.7,0,0,0,1.682.553,2.54,2.54,0,0,0,1.607-.538A1.85,1.85,0,0,0-35.814-101.468Z" transform="translate(80.756 113.985)" fill="#d9232d"/>
    <path id="Path_359" data-name="Path 359" d="M192.381-149.827h-3.408c.12-2.764.18-5.746.18-8.975a70.554,70.554,0,0,0-.39-8l3.6-.189c-.12,2.284-.18,5-.18,8.2C192.2-155.558,192.261-152.562,192.381-149.827Z" transform="translate(-137.14 170.184)" fill="#d9232d"/>
    <path id="Path_360" data-name="Path 360" d="M282.215-146.137h-3.348c.12-1.673.18-3.578.18-5.731a32.792,32.792,0,0,0-.42-5.629l3.588-.349c-.105,1.556-.165,3.549-.165,5.978C282.035-149.8,282.095-147.882,282.215-146.137Zm.571-15.113a2.013,2.013,0,0,1-.586,1.44,2.127,2.127,0,0,1-1.607.611,1.742,1.742,0,0,1-1.366-.538,1.809,1.809,0,0,1-.5-1.28,1.979,1.979,0,0,1,.586-1.425,2.14,2.14,0,0,1,1.622-.611,1.762,1.762,0,0,1,1.366.524A1.891,1.891,0,0,1,282.786-161.25Z" transform="translate(-221.179 166.494)" fill="#d9232d"/>
    <path id="Path_361" data-name="Path 361" d="M375.167-74.347H378.5a13.64,13.64,0,0,1-1.667,2.415,25.1,25.1,0,0,1-2.192,2.647v.189a40.256,40.256,0,0,1,2.492,3.273,22.6,22.6,0,0,1,1.847,2.895l-3.874.058a14.509,14.509,0,0,0-1.066-2.182,27.359,27.359,0,0,0-1.486-2.458h-.165a20.067,20.067,0,0,0-1.351,2.415,9.962,9.962,0,0,0-.931,2.211h-3.468a14.535,14.535,0,0,1,1.817-2.822,27.528,27.528,0,0,1,2.507-3.229v-.175a33.5,33.5,0,0,1-2.162-2.72,12.457,12.457,0,0,1-1.667-2.5h3.874a7.366,7.366,0,0,0,.841,1.862,18.321,18.321,0,0,0,1.246,2.08h.15a12.26,12.26,0,0,0,1.156-2.051A7.533,7.533,0,0,0,375.167-74.347Z" transform="translate(-303.485 83.358)" fill="#d9232d"/>
    <path id="Path_362" data-name="Path 362" d="M481.256,129.575a2.63,2.63,0,0,1,.841,1.949,2.576,2.576,0,0,1-.841,1.935,2.768,2.768,0,0,1-2,.815,2.8,2.8,0,0,1-2.012-.815,2.584,2.584,0,0,1-.826-1.935,2.616,2.616,0,0,1,.826-1.949,2.789,2.789,0,0,1,2.012-.8A2.755,2.755,0,0,1,481.256,129.575Z" transform="translate(-406.151 -107.007)" fill="#d9232d"/>
    <path id="Path_363" data-name="Path 363" d="M481.256,129.575a2.63,2.63,0,0,1,.841,1.949,2.576,2.576,0,0,1-.841,1.935,2.768,2.768,0,0,1-2,.815,2.8,2.8,0,0,1-2.012-.815,2.584,2.584,0,0,1-.826-1.935,2.616,2.616,0,0,1,.826-1.949,2.789,2.789,0,0,1,2.012-.8A2.755,2.755,0,0,1,481.256,129.575Z" transform="translate(-406.151 -107.007)" fill="#d9232d"/>
    <path id="Path_364" data-name="Path 364" d="M361.977,129.575a2.63,2.63,0,0,1,.841,1.949,2.576,2.576,0,0,1-.841,1.935,2.767,2.767,0,0,1-2,.815,2.8,2.8,0,0,1-2.012-.815,2.584,2.584,0,0,1-.826-1.935,2.616,2.616,0,0,1,.826-1.949,2.789,2.789,0,0,1,2.012-.8A2.754,2.754,0,0,1,361.977,129.575Z" transform="translate(-294.604 -107.007)" fill="#d9232d"/>
    <path id="Path_365" data-name="Path 365" d="M361.977,129.575a2.63,2.63,0,0,1,.841,1.949,2.576,2.576,0,0,1-.841,1.935,2.767,2.767,0,0,1-2,.815,2.8,2.8,0,0,1-2.012-.815,2.584,2.584,0,0,1-.826-1.935,2.616,2.616,0,0,1,.826-1.949,2.789,2.789,0,0,1,2.012-.8A2.754,2.754,0,0,1,361.977,129.575Z" transform="translate(-294.604 -107.007)" fill="#d9232d"/>
    <path id="Path_366" data-name="Path 366" d="M236.705,154.806c1.757-.305,1.757-.553,0-.756l.15-.029h4.654l.12.015a.812.812,0,0,1,0,.786h-4.775A.254.254,0,0,1,236.705,154.806Z" transform="translate(-181.975 -130.667)" fill="#d9232d"/>
    <path id="Path_367" data-name="Path 367" d="M226.126,185.248h-.075q2.545-.415,0-.655h7.057a.3.3,0,0,1,.12.015.533.533,0,0,1,0,.625.3.3,0,0,1-.12.015Z" transform="translate(-172.011 -159.32)" fill="#d9232d"/>
  </g>
</svg>
